/vscmnt/brussel_pixiu_data/_data_brussel/112/vsc11236/PredSimResults/SUBJ09opt3D/weighted-LRposFixed/trackIG/worker_05.mot
version=1
nRows=9
nColumns=50
inDegrees=yes
endheader
                time	         pelvis_tilt	         pelvis_list	     pelvis_rotation	           pelvis_tx	           pelvis_ty	           pelvis_tz	       hip_flexion_r	     hip_adduction_r	      hip_rotation_r	        knee_angle_r	       ankle_angle_r	         mtp_angle_r	       hip_flexion_l	     hip_adduction_l	      hip_rotation_l	        knee_angle_l	       ankle_angle_l	         mtp_angle_l	    lumbar_extension	      lumbar_bending	     lumbar_rotation	 ercspn_r/activation	 intobl_r/activation	 extobl_r/activation	    abd_r/activation	    add_r/activation	hamstrings_r/activation	bifemsh_r/activation	glut_max_r/activation	iliopsoas_r/activation	rect_fem_r/activation	  vasti_r/activation	gastroc_r/activation	 soleus_r/activation	tib_ant_r/activation	 ercspn_l/activation	 intobl_l/activation	 extobl_l/activation	    abd_l/activation	    add_l/activation	hamstrings_l/activation	bifemsh_l/activation	glut_max_l/activation	iliopsoas_l/activation	rect_fem_l/activation	  vasti_l/activation	gastroc_l/activation	 soleus_l/activation	tib_ant_l/activation	
          1.99662057	         -3.47960041	          1.53696541	         -7.58575955	          2.19628263	          0.99590322	          0.00111616	        -11.41814168	         -2.96890009	         -2.96318138	        -12.12632418	          5.82762163	         35.75877374	         22.90723328	          0.09079292	         -4.09924169	          3.07646355	          2.61474702	          0.22776820	        -12.48379419	          1.37083637	         11.10685451	          0.01000598	          0.01000027	          0.01000014	          0.05744099	          0.01000073	          0.01272599	          0.29294820	          0.01824498	          0.01122002	          0.01001482	          0.01000093	          0.32990713	          0.27398117	          0.01221928	          0.03979869	          0.22652843	          0.05554733	          0.01000013	          0.25293112	          0.05407978	          0.01221888	          0.01000020	          0.09229194	          0.02068262	          0.02522430	          0.01000042	          0.01000016	          0.32389301	
          2.00993138	         -3.55163436	          1.72938425	         -7.57593002	          2.21594147	          0.99377470	          0.00004156	        -11.98181438	         -3.38248257	         -3.51868268	        -12.93670691	          4.86576986	         37.48594581	         22.56311062	          0.50682849	         -4.32168972	          2.16499813	          1.88000058	          0.23783290	        -11.85589977	          0.81314080	         11.31384716	          0.01000111	          0.01000033	          0.01000048	          0.04701164	          0.01000069	          0.03439087	          0.28354640	          0.01493242	          0.01000116	          0.01000084	          0.01000065	          0.30363595	          0.25177838	          0.01000070	          0.03257274	          0.19237841	          0.04546187	          0.01000018	          0.23819237	          0.06181439	          0.01000343	          0.02931194	          0.07553482	          0.01692742	          0.06895213	          0.01382022	          0.01493172	          0.33651935	
          2.02324218	         -3.60026587	          1.96857777	         -7.52981579	          2.23600664	          0.99185356	         -0.00101772	        -12.41882429	         -3.85502236	         -4.10985936	        -14.03798824	          3.75170562	         39.22010083	         22.10135367	          0.92712101	         -4.54921977	          1.17955939	          1.13339414	          0.21916466	        -11.19966548	          0.18254237	         11.46051198	          0.01000277	          0.01000018	          0.01000067	          0.03847591	          0.01000068	          0.04137228	          0.26808968	          0.01222125	          0.01750328	          0.01000074	          0.01000030	          0.27392086	          0.22735441	          0.01000010	          0.02665885	          0.15744972	          0.03720759	          0.06610657	          0.19494524	          0.07175856	          0.01005679	          0.04264994	          0.06182023	          0.01385404	          0.05643375	          0.01131118	          0.01222068	          0.40418965	
          2.03655299	         -3.63046582	          2.24684555	         -7.44587543	          2.25615937	          0.99039722	         -0.00213658	        -12.63969418	         -4.38601145	         -4.73156222	        -15.53104802	          2.43046370	         40.90678154	         21.50949365	          1.39483408	         -4.87599484	          0.43400156	          0.21675843	          0.18842112	        -10.55096646	         -0.50150710	         11.54375560	          0.01425027	          0.01000025	          0.01000054	          0.03148998	          0.01000089	          0.06018917	          0.21954898	          0.01000237	          0.02652045	          0.01000083	          0.01000032	          0.22418713	          0.18845448	          0.01000017	          0.02181898	          0.12886218	          0.03045201	          0.11311612	          0.15955195	          0.07211782	          0.01001161	          0.05976788	          0.05059576	          0.01133876	          0.04621034	          0.01000099	          0.01000197	          0.45152082	
          2.04986379	         -3.64564290	          2.54854913	         -7.32924886	          2.27606338	          0.98961784	         -0.00331914	        -12.56925108	         -4.96697315	         -5.37683173	        -17.50219769	          0.91564297	         42.35034493	         20.87160638	          1.89180492	         -5.26688835	         -0.27729156	         -0.43690847	          0.15063868	         -9.94788411	         -1.21911092	         11.56692829	          0.05396187	          0.01000063	          0.01000045	          0.02577245	          0.01000274	          0.07749166	          0.17968817	          0.01000038	          0.02170730	          0.01000042	          0.01000022	          0.18348226	          0.15423748	          0.01000011	          0.01785817	          0.10546516	          0.02492304	          0.17144383	          0.13173191	          0.07308787	          0.01001114	          0.06588501	          0.04140927	          0.01000040	          0.04242096	          0.01000154	          0.01000072	          0.47289591	
          2.06317459	         -3.65017329	          2.86084014	         -7.18971635	          2.29542145	          0.98970466	         -0.00454656	        -12.15213128	         -5.59257716	         -6.04680938	        -19.99674666	         -0.75473523	         43.25924143	         20.22650682	          2.40285853	         -5.63947958	         -1.00490954	         -0.72056606	          0.11529412	         -9.41926931	         -1.95404223	         11.53731201	          0.06796476	          0.01000088	          0.01000050	          0.02109305	          0.06994560	          0.08618914	          0.14706484	          0.01000020	          0.04365598	          0.01000031	          0.01000012	          0.15016801	          0.12623311	          0.01000027	          0.01461798	          0.08631627	          0.02039796	          0.19722380	          0.12649939	          0.07450335	          0.01000737	          0.09891736	          0.03389075	          0.01000052	          0.06837006	          0.01000212	          0.01000177	          0.46154808	
          2.07648540	         -3.64745643	          3.14432871	         -7.02733443	          2.31403423	          0.99075975	         -0.00578029	        -11.35704630	         -6.23133958	         -6.77364732	        -23.06299339	         -2.39759200	         43.09344578	         19.57111724	          2.88717013	         -5.95290642	         -1.71859320	         -0.65906553	          0.09007547	         -8.98727299	         -2.66263935	         11.45552115	          0.05562702	          0.01000076	          0.01000055	          0.01726326	          0.11044488	          0.08927736	          0.12036435	          0.01000015	          0.05929651	          0.01000031	          0.01000010	          0.12290251	          0.10331339	          0.01000016	          0.01745688	          0.07064419	          0.01669452	          0.19733644	          0.13677888	          0.07828563	          0.01000648	          0.10958352	          0.02773734	          0.01000046	          0.07894243	          0.01000298	          0.01000468	          0.42712471	
          2.08979620	         -3.63804559	          3.35415113	         -6.83898729	          2.33188586	          0.99268506	         -0.00698240	        -10.21045090	         -6.85076958	         -7.55640408	        -26.63048305	         -4.10317599	         41.87952462	         18.88831498	          3.29671974	         -6.21431671	         -2.37737596	         -0.35618310	          0.08103797	         -8.65576967	         -3.29586044	         11.31858120	          0.04552805	          0.01000062	          0.01000068	          0.01412885	          0.13574728	          0.08892368	          0.09851892	          0.01000013	          0.05301213	          0.01000031	          0.01000007	          0.10058752	          0.08455513	          0.01000013	          0.01575554	          0.05781765	          0.01366357	          0.18408158	          0.14326242	          0.08206367	          0.01000733	          0.11444268	          0.02270119	          0.01000045	          0.07498304	          0.01000233	          0.01000262	          0.38130375	
          2.10310700	         -3.62007087	          3.45652171	         -6.62260545	          2.34907109	          0.99525429	         -0.00812660	         -8.78603725	         -7.42385961	         -8.37092880	        -30.52360830	         -6.03082146	         39.83288579	         18.15545326	          3.59662310	         -6.42426905	         -2.93833509	          0.06075897	          0.08712750	         -8.41580778	         -3.81581059	         11.12423220	          0.03726239	          0.01000036	          0.01000090	          0.01156355	          0.16051212	          0.08845893	          0.09710323	          0.01000010	          0.04338863	          0.01000027	          0.01000004	          0.08232419	          0.06920274	          0.01003709	          0.01289633	          0.04731997	          0.01118311	          0.16395961	          0.12544237	          0.08320407	          0.01000555	          0.12370772	          0.01857943	          0.01000046	          0.08126296	          0.01000267	          0.01000212	          0.33847484	
